<svg xmlns="http://www.w3.org/2000/svg" xmlns:xlink="http://www.w3.org/1999/xlink" id="visual" width="300" height="900" version="1.1" viewBox="0 0 300 900"><rect width="300" height="900" x="0" y="0" fill="#141414"/><path fill="#4facf7" d="M108 0L87 129L115 257L126 386L116 514L100 643L78 771L105 900L0 900L0 771L0 643L0 514L0 386L0 257L0 129L0 0Z"/><path fill="#2b9dfc" d="M65 0L83 129L86 257L69 386L95 514L80 643L96 771L61 900L0 900L0 771L0 643L0 514L0 386L0 257L0 129L0 0Z"/><path fill="#008cff" d="M66 0L45 129L71 257L74 386L73 514L62 643L60 771L69 900L0 900L0 771L0 643L0 514L0 386L0 257L0 129L0 0Z"/><path fill="#007aff" d="M46 0L37 129L44 257L44 386L44 514L58 643L51 771L51 900L0 900L0 771L0 643L0 514L0 386L0 257L0 129L0 0Z"/><path fill="#06f" d="M27 0L23 129L31 257L37 386L23 514L35 643L19 771L17 900L0 900L0 771L0 643L0 514L0 386L0 257L0 129L0 0Z"/></svg>